<mxfile host="app.diagrams.net" modified="2024-04-10T15:51:45.148Z" agent="Mozilla/5.0 (Windows NT 10.0; Win64; x64) AppleWebKit/537.36 (KHTML, like Gecko) Chrome/123.0.0.0 Safari/537.36" etag="gmx2Uc-3NIXbkz2As-b2" version="24.2.2" type="device">
  <diagram name="Strona-1" id="_YMcOTiEtxVhceUD2AZN">
    <mxGraphModel dx="2514" dy="878" grid="1" gridSize="10" guides="1" tooltips="1" connect="1" arrows="1" fold="1" page="1" pageScale="1" pageWidth="827" pageHeight="1169" math="0" shadow="0">
      <root>
        <mxCell id="0" />
        <mxCell id="1" parent="0" />
        <mxCell id="1K0r7FnXgw_28OC5bysR-1" value="" style="rounded=0;whiteSpace=wrap;html=1;" parent="1" vertex="1">
          <mxGeometry x="330" y="440" width="120" height="60" as="geometry" />
        </mxCell>
        <mxCell id="1K0r7FnXgw_28OC5bysR-2" value="Outlook" style="text;html=1;align=center;verticalAlign=middle;whiteSpace=wrap;rounded=0;" parent="1" vertex="1">
          <mxGeometry x="360" y="455" width="60" height="30" as="geometry" />
        </mxCell>
        <mxCell id="Ff4ateC0sIPTkHx4v1eI-24" style="edgeStyle=orthogonalEdgeStyle;rounded=0;orthogonalLoop=1;jettySize=auto;html=1;exitX=0.5;exitY=1;exitDx=0;exitDy=0;entryX=0.5;entryY=0;entryDx=0;entryDy=0;" edge="1" parent="1" source="Ff4ateC0sIPTkHx4v1eI-2" target="Ff4ateC0sIPTkHx4v1eI-16">
          <mxGeometry relative="1" as="geometry" />
        </mxCell>
        <mxCell id="Ff4ateC0sIPTkHx4v1eI-25" style="edgeStyle=orthogonalEdgeStyle;rounded=0;orthogonalLoop=1;jettySize=auto;html=1;exitX=0.5;exitY=1;exitDx=0;exitDy=0;entryX=0.5;entryY=0;entryDx=0;entryDy=0;" edge="1" parent="1" source="Ff4ateC0sIPTkHx4v1eI-2" target="Ff4ateC0sIPTkHx4v1eI-18">
          <mxGeometry relative="1" as="geometry" />
        </mxCell>
        <mxCell id="Ff4ateC0sIPTkHx4v1eI-26" style="edgeStyle=orthogonalEdgeStyle;rounded=0;orthogonalLoop=1;jettySize=auto;html=1;exitX=0.5;exitY=1;exitDx=0;exitDy=0;entryX=0.5;entryY=0;entryDx=0;entryDy=0;" edge="1" parent="1" source="Ff4ateC0sIPTkHx4v1eI-2" target="Ff4ateC0sIPTkHx4v1eI-20">
          <mxGeometry relative="1" as="geometry" />
        </mxCell>
        <mxCell id="Ff4ateC0sIPTkHx4v1eI-2" value="" style="rounded=0;whiteSpace=wrap;html=1;" vertex="1" parent="1">
          <mxGeometry x="-20" y="700" width="120" height="60" as="geometry" />
        </mxCell>
        <mxCell id="Ff4ateC0sIPTkHx4v1eI-3" value="temp" style="text;html=1;align=center;verticalAlign=middle;whiteSpace=wrap;rounded=0;" vertex="1" parent="1">
          <mxGeometry x="10" y="715" width="60" height="30" as="geometry" />
        </mxCell>
        <mxCell id="Ff4ateC0sIPTkHx4v1eI-84" style="edgeStyle=orthogonalEdgeStyle;rounded=0;orthogonalLoop=1;jettySize=auto;html=1;exitX=0.5;exitY=1;exitDx=0;exitDy=0;entryX=0.5;entryY=0;entryDx=0;entryDy=0;" edge="1" parent="1" source="Ff4ateC0sIPTkHx4v1eI-4" target="Ff4ateC0sIPTkHx4v1eI-82">
          <mxGeometry relative="1" as="geometry" />
        </mxCell>
        <mxCell id="Ff4ateC0sIPTkHx4v1eI-89" style="edgeStyle=orthogonalEdgeStyle;rounded=0;orthogonalLoop=1;jettySize=auto;html=1;exitX=0.5;exitY=1;exitDx=0;exitDy=0;entryX=0.5;entryY=0;entryDx=0;entryDy=0;" edge="1" parent="1" source="Ff4ateC0sIPTkHx4v1eI-4" target="Ff4ateC0sIPTkHx4v1eI-85">
          <mxGeometry relative="1" as="geometry" />
        </mxCell>
        <mxCell id="Ff4ateC0sIPTkHx4v1eI-91" style="edgeStyle=orthogonalEdgeStyle;rounded=0;orthogonalLoop=1;jettySize=auto;html=1;exitX=0.5;exitY=1;exitDx=0;exitDy=0;entryX=0.5;entryY=0;entryDx=0;entryDy=0;" edge="1" parent="1" source="Ff4ateC0sIPTkHx4v1eI-4" target="Ff4ateC0sIPTkHx4v1eI-87">
          <mxGeometry relative="1" as="geometry" />
        </mxCell>
        <mxCell id="Ff4ateC0sIPTkHx4v1eI-4" value="" style="rounded=0;whiteSpace=wrap;html=1;" vertex="1" parent="1">
          <mxGeometry x="330" y="700" width="120" height="60" as="geometry" />
        </mxCell>
        <mxCell id="Ff4ateC0sIPTkHx4v1eI-5" value="temp" style="text;html=1;align=center;verticalAlign=middle;whiteSpace=wrap;rounded=0;" vertex="1" parent="1">
          <mxGeometry x="360" y="715" width="60" height="30" as="geometry" />
        </mxCell>
        <mxCell id="Ff4ateC0sIPTkHx4v1eI-43" style="edgeStyle=orthogonalEdgeStyle;rounded=0;orthogonalLoop=1;jettySize=auto;html=1;exitX=0.5;exitY=1;exitDx=0;exitDy=0;entryX=0.5;entryY=0;entryDx=0;entryDy=0;" edge="1" parent="1" source="Ff4ateC0sIPTkHx4v1eI-6" target="Ff4ateC0sIPTkHx4v1eI-40">
          <mxGeometry relative="1" as="geometry" />
        </mxCell>
        <mxCell id="Ff4ateC0sIPTkHx4v1eI-6" value="" style="rounded=0;whiteSpace=wrap;html=1;" vertex="1" parent="1">
          <mxGeometry x="820" y="690" width="120" height="60" as="geometry" />
        </mxCell>
        <mxCell id="Ff4ateC0sIPTkHx4v1eI-7" value="temp" style="text;html=1;align=center;verticalAlign=middle;whiteSpace=wrap;rounded=0;" vertex="1" parent="1">
          <mxGeometry x="850" y="705" width="60" height="30" as="geometry" />
        </mxCell>
        <mxCell id="Ff4ateC0sIPTkHx4v1eI-8" value="" style="endArrow=classic;html=1;rounded=0;entryX=0.5;entryY=0;entryDx=0;entryDy=0;" edge="1" parent="1" target="Ff4ateC0sIPTkHx4v1eI-2">
          <mxGeometry width="50" height="50" relative="1" as="geometry">
            <mxPoint x="390" y="500" as="sourcePoint" />
            <mxPoint x="440" y="450" as="targetPoint" />
          </mxGeometry>
        </mxCell>
        <mxCell id="Ff4ateC0sIPTkHx4v1eI-9" value="" style="endArrow=classic;html=1;rounded=0;entryX=0.5;entryY=0;entryDx=0;entryDy=0;" edge="1" parent="1" target="Ff4ateC0sIPTkHx4v1eI-4">
          <mxGeometry width="50" height="50" relative="1" as="geometry">
            <mxPoint x="389" y="500" as="sourcePoint" />
            <mxPoint x="439" y="450" as="targetPoint" />
          </mxGeometry>
        </mxCell>
        <mxCell id="Ff4ateC0sIPTkHx4v1eI-10" value="" style="endArrow=classic;html=1;rounded=0;entryX=0.5;entryY=0;entryDx=0;entryDy=0;" edge="1" parent="1" target="Ff4ateC0sIPTkHx4v1eI-6">
          <mxGeometry width="50" height="50" relative="1" as="geometry">
            <mxPoint x="389" y="500" as="sourcePoint" />
            <mxPoint x="439" y="450" as="targetPoint" />
          </mxGeometry>
        </mxCell>
        <mxCell id="Ff4ateC0sIPTkHx4v1eI-11" value="Rainy" style="text;html=1;align=center;verticalAlign=middle;whiteSpace=wrap;rounded=0;" vertex="1" parent="1">
          <mxGeometry x="130" y="520" width="60" height="30" as="geometry" />
        </mxCell>
        <mxCell id="Ff4ateC0sIPTkHx4v1eI-13" value="Overcast" style="text;html=1;align=center;verticalAlign=middle;whiteSpace=wrap;rounded=0;" vertex="1" parent="1">
          <mxGeometry x="390" y="590" width="60" height="30" as="geometry" />
        </mxCell>
        <mxCell id="Ff4ateC0sIPTkHx4v1eI-14" value="Sunny" style="text;html=1;align=center;verticalAlign=middle;whiteSpace=wrap;rounded=0;" vertex="1" parent="1">
          <mxGeometry x="580" y="585" width="60" height="30" as="geometry" />
        </mxCell>
        <mxCell id="Ff4ateC0sIPTkHx4v1eI-16" value="" style="rounded=0;whiteSpace=wrap;html=1;" vertex="1" parent="1">
          <mxGeometry x="-170" y="870" width="120" height="60" as="geometry" />
        </mxCell>
        <mxCell id="Ff4ateC0sIPTkHx4v1eI-17" value="no" style="text;html=1;align=center;verticalAlign=middle;whiteSpace=wrap;rounded=0;" vertex="1" parent="1">
          <mxGeometry x="-140" y="885" width="60" height="30" as="geometry" />
        </mxCell>
        <mxCell id="Ff4ateC0sIPTkHx4v1eI-34" style="edgeStyle=orthogonalEdgeStyle;rounded=0;orthogonalLoop=1;jettySize=auto;html=1;exitX=0.5;exitY=1;exitDx=0;exitDy=0;entryX=0.5;entryY=0;entryDx=0;entryDy=0;" edge="1" parent="1" source="Ff4ateC0sIPTkHx4v1eI-18" target="Ff4ateC0sIPTkHx4v1eI-32">
          <mxGeometry relative="1" as="geometry" />
        </mxCell>
        <mxCell id="Ff4ateC0sIPTkHx4v1eI-35" style="edgeStyle=orthogonalEdgeStyle;rounded=0;orthogonalLoop=1;jettySize=auto;html=1;exitX=0.5;exitY=1;exitDx=0;exitDy=0;entryX=0.5;entryY=0;entryDx=0;entryDy=0;" edge="1" parent="1" source="Ff4ateC0sIPTkHx4v1eI-18" target="Ff4ateC0sIPTkHx4v1eI-30">
          <mxGeometry relative="1" as="geometry" />
        </mxCell>
        <mxCell id="Ff4ateC0sIPTkHx4v1eI-18" value="" style="rounded=0;whiteSpace=wrap;html=1;" vertex="1" parent="1">
          <mxGeometry x="-20" y="870" width="120" height="60" as="geometry" />
        </mxCell>
        <mxCell id="Ff4ateC0sIPTkHx4v1eI-19" value="Humidity" style="text;html=1;align=center;verticalAlign=middle;whiteSpace=wrap;rounded=0;" vertex="1" parent="1">
          <mxGeometry x="10" y="885" width="60" height="30" as="geometry" />
        </mxCell>
        <mxCell id="Ff4ateC0sIPTkHx4v1eI-20" value="" style="rounded=0;whiteSpace=wrap;html=1;" vertex="1" parent="1">
          <mxGeometry x="130" y="870" width="120" height="60" as="geometry" />
        </mxCell>
        <mxCell id="Ff4ateC0sIPTkHx4v1eI-21" value="yes" style="text;html=1;align=center;verticalAlign=middle;whiteSpace=wrap;rounded=0;" vertex="1" parent="1">
          <mxGeometry x="160" y="885" width="60" height="30" as="geometry" />
        </mxCell>
        <mxCell id="Ff4ateC0sIPTkHx4v1eI-27" value="Hot" style="text;html=1;align=center;verticalAlign=middle;whiteSpace=wrap;rounded=0;" vertex="1" parent="1">
          <mxGeometry x="-170" y="820" width="60" height="30" as="geometry" />
        </mxCell>
        <mxCell id="Ff4ateC0sIPTkHx4v1eI-28" value="Mild" style="text;html=1;align=center;verticalAlign=middle;whiteSpace=wrap;rounded=0;" vertex="1" parent="1">
          <mxGeometry x="-8" y="820" width="60" height="30" as="geometry" />
        </mxCell>
        <mxCell id="Ff4ateC0sIPTkHx4v1eI-29" value="Cool" style="text;html=1;align=center;verticalAlign=middle;whiteSpace=wrap;rounded=0;" vertex="1" parent="1">
          <mxGeometry x="130" y="820" width="60" height="30" as="geometry" />
        </mxCell>
        <mxCell id="Ff4ateC0sIPTkHx4v1eI-30" value="" style="rounded=0;whiteSpace=wrap;html=1;" vertex="1" parent="1">
          <mxGeometry x="-110" y="1010" width="120" height="60" as="geometry" />
        </mxCell>
        <mxCell id="Ff4ateC0sIPTkHx4v1eI-31" value="no" style="text;html=1;align=center;verticalAlign=middle;whiteSpace=wrap;rounded=0;" vertex="1" parent="1">
          <mxGeometry x="-80" y="1025" width="60" height="30" as="geometry" />
        </mxCell>
        <mxCell id="Ff4ateC0sIPTkHx4v1eI-32" value="" style="rounded=0;whiteSpace=wrap;html=1;" vertex="1" parent="1">
          <mxGeometry x="60" y="1010" width="120" height="60" as="geometry" />
        </mxCell>
        <mxCell id="Ff4ateC0sIPTkHx4v1eI-33" value="yes" style="text;html=1;align=center;verticalAlign=middle;whiteSpace=wrap;rounded=0;" vertex="1" parent="1">
          <mxGeometry x="90" y="1025" width="60" height="30" as="geometry" />
        </mxCell>
        <mxCell id="Ff4ateC0sIPTkHx4v1eI-36" value="High" style="text;html=1;align=center;verticalAlign=middle;whiteSpace=wrap;rounded=0;" vertex="1" parent="1">
          <mxGeometry x="-50" y="940" width="60" height="30" as="geometry" />
        </mxCell>
        <mxCell id="Ff4ateC0sIPTkHx4v1eI-37" value="Norm" style="text;html=1;align=center;verticalAlign=middle;whiteSpace=wrap;rounded=0;" vertex="1" parent="1">
          <mxGeometry x="60" y="940" width="60" height="30" as="geometry" />
        </mxCell>
        <mxCell id="Ff4ateC0sIPTkHx4v1eI-50" style="edgeStyle=orthogonalEdgeStyle;rounded=0;orthogonalLoop=1;jettySize=auto;html=1;exitX=0.5;exitY=1;exitDx=0;exitDy=0;entryX=0.5;entryY=0;entryDx=0;entryDy=0;" edge="1" parent="1" source="Ff4ateC0sIPTkHx4v1eI-38" target="Ff4ateC0sIPTkHx4v1eI-46">
          <mxGeometry relative="1" as="geometry" />
        </mxCell>
        <mxCell id="Ff4ateC0sIPTkHx4v1eI-51" style="edgeStyle=orthogonalEdgeStyle;rounded=0;orthogonalLoop=1;jettySize=auto;html=1;exitX=0.5;exitY=1;exitDx=0;exitDy=0;entryX=0.5;entryY=0;entryDx=0;entryDy=0;" edge="1" parent="1" source="Ff4ateC0sIPTkHx4v1eI-38" target="Ff4ateC0sIPTkHx4v1eI-48">
          <mxGeometry relative="1" as="geometry" />
        </mxCell>
        <mxCell id="Ff4ateC0sIPTkHx4v1eI-38" value="" style="rounded=0;whiteSpace=wrap;html=1;" vertex="1" parent="1">
          <mxGeometry x="740" y="830" width="120" height="60" as="geometry" />
        </mxCell>
        <mxCell id="Ff4ateC0sIPTkHx4v1eI-39" value="Humidity" style="text;html=1;align=center;verticalAlign=middle;whiteSpace=wrap;rounded=0;" vertex="1" parent="1">
          <mxGeometry x="770" y="845" width="60" height="30" as="geometry" />
        </mxCell>
        <mxCell id="Ff4ateC0sIPTkHx4v1eI-67" style="edgeStyle=orthogonalEdgeStyle;rounded=0;orthogonalLoop=1;jettySize=auto;html=1;exitX=0.5;exitY=1;exitDx=0;exitDy=0;entryX=0.5;entryY=0;entryDx=0;entryDy=0;" edge="1" parent="1" source="Ff4ateC0sIPTkHx4v1eI-40" target="Ff4ateC0sIPTkHx4v1eI-65">
          <mxGeometry relative="1" as="geometry" />
        </mxCell>
        <mxCell id="Ff4ateC0sIPTkHx4v1eI-68" style="edgeStyle=orthogonalEdgeStyle;rounded=0;orthogonalLoop=1;jettySize=auto;html=1;exitX=0.5;exitY=1;exitDx=0;exitDy=0;entryX=0.5;entryY=0;entryDx=0;entryDy=0;" edge="1" parent="1" source="Ff4ateC0sIPTkHx4v1eI-40" target="Ff4ateC0sIPTkHx4v1eI-63">
          <mxGeometry relative="1" as="geometry" />
        </mxCell>
        <mxCell id="Ff4ateC0sIPTkHx4v1eI-40" value="" style="rounded=0;whiteSpace=wrap;html=1;" vertex="1" parent="1">
          <mxGeometry x="1000" y="830" width="120" height="60" as="geometry" />
        </mxCell>
        <mxCell id="Ff4ateC0sIPTkHx4v1eI-41" value="windy" style="text;html=1;align=center;verticalAlign=middle;whiteSpace=wrap;rounded=0;" vertex="1" parent="1">
          <mxGeometry x="1030" y="845" width="60" height="30" as="geometry" />
        </mxCell>
        <mxCell id="Ff4ateC0sIPTkHx4v1eI-42" style="edgeStyle=orthogonalEdgeStyle;rounded=0;orthogonalLoop=1;jettySize=auto;html=1;exitX=0.5;exitY=1;exitDx=0;exitDy=0;entryX=0.493;entryY=-0.062;entryDx=0;entryDy=0;entryPerimeter=0;" edge="1" parent="1" source="Ff4ateC0sIPTkHx4v1eI-6" target="Ff4ateC0sIPTkHx4v1eI-38">
          <mxGeometry relative="1" as="geometry" />
        </mxCell>
        <mxCell id="Ff4ateC0sIPTkHx4v1eI-44" value="Mild" style="text;html=1;align=center;verticalAlign=middle;whiteSpace=wrap;rounded=0;" vertex="1" parent="1">
          <mxGeometry x="800" y="760" width="60" height="30" as="geometry" />
        </mxCell>
        <mxCell id="Ff4ateC0sIPTkHx4v1eI-45" value="Cool" style="text;html=1;align=center;verticalAlign=middle;whiteSpace=wrap;rounded=0;" vertex="1" parent="1">
          <mxGeometry x="880" y="760" width="60" height="30" as="geometry" />
        </mxCell>
        <mxCell id="Ff4ateC0sIPTkHx4v1eI-58" style="edgeStyle=orthogonalEdgeStyle;rounded=0;orthogonalLoop=1;jettySize=auto;html=1;exitX=0.5;exitY=1;exitDx=0;exitDy=0;entryX=0.5;entryY=0;entryDx=0;entryDy=0;" edge="1" parent="1" source="Ff4ateC0sIPTkHx4v1eI-46">
          <mxGeometry relative="1" as="geometry">
            <mxPoint x="650" y="1060" as="targetPoint" />
          </mxGeometry>
        </mxCell>
        <mxCell id="Ff4ateC0sIPTkHx4v1eI-59" style="edgeStyle=orthogonalEdgeStyle;rounded=0;orthogonalLoop=1;jettySize=auto;html=1;exitX=0.5;exitY=1;exitDx=0;exitDy=0;entryX=0.5;entryY=0;entryDx=0;entryDy=0;" edge="1" parent="1" source="Ff4ateC0sIPTkHx4v1eI-46" target="Ff4ateC0sIPTkHx4v1eI-56">
          <mxGeometry relative="1" as="geometry" />
        </mxCell>
        <mxCell id="Ff4ateC0sIPTkHx4v1eI-46" value="" style="rounded=0;whiteSpace=wrap;html=1;" vertex="1" parent="1">
          <mxGeometry x="670" y="950" width="120" height="60" as="geometry" />
        </mxCell>
        <mxCell id="Ff4ateC0sIPTkHx4v1eI-47" value="High" style="text;html=1;align=center;verticalAlign=middle;whiteSpace=wrap;rounded=0;" vertex="1" parent="1">
          <mxGeometry x="753" y="896" width="60" height="30" as="geometry" />
        </mxCell>
        <mxCell id="Ff4ateC0sIPTkHx4v1eI-48" value="" style="rounded=0;whiteSpace=wrap;html=1;" vertex="1" parent="1">
          <mxGeometry x="810" y="950" width="120" height="60" as="geometry" />
        </mxCell>
        <mxCell id="Ff4ateC0sIPTkHx4v1eI-49" value="Normal" style="text;html=1;align=center;verticalAlign=middle;whiteSpace=wrap;rounded=0;" vertex="1" parent="1">
          <mxGeometry x="794" y="897" width="60" height="30" as="geometry" />
        </mxCell>
        <mxCell id="Ff4ateC0sIPTkHx4v1eI-52" value="Yes" style="text;html=1;align=center;verticalAlign=middle;whiteSpace=wrap;rounded=0;" vertex="1" parent="1">
          <mxGeometry x="840" y="965" width="60" height="30" as="geometry" />
        </mxCell>
        <mxCell id="Ff4ateC0sIPTkHx4v1eI-53" value="Windy" style="text;html=1;align=center;verticalAlign=middle;whiteSpace=wrap;rounded=0;" vertex="1" parent="1">
          <mxGeometry x="700" y="965" width="60" height="30" as="geometry" />
        </mxCell>
        <mxCell id="Ff4ateC0sIPTkHx4v1eI-54" value="" style="rounded=0;whiteSpace=wrap;html=1;" vertex="1" parent="1">
          <mxGeometry x="590" y="1062.5" width="120" height="60" as="geometry" />
        </mxCell>
        <mxCell id="Ff4ateC0sIPTkHx4v1eI-55" value="no" style="text;html=1;align=center;verticalAlign=middle;whiteSpace=wrap;rounded=0;" vertex="1" parent="1">
          <mxGeometry x="620" y="1075" width="60" height="35" as="geometry" />
        </mxCell>
        <mxCell id="Ff4ateC0sIPTkHx4v1eI-56" value="" style="rounded=0;whiteSpace=wrap;html=1;" vertex="1" parent="1">
          <mxGeometry x="764" y="1060" width="120" height="60" as="geometry" />
        </mxCell>
        <mxCell id="Ff4ateC0sIPTkHx4v1eI-57" value="yes" style="text;html=1;align=center;verticalAlign=middle;whiteSpace=wrap;rounded=0;" vertex="1" parent="1">
          <mxGeometry x="794" y="1075" width="60" height="30" as="geometry" />
        </mxCell>
        <mxCell id="Ff4ateC0sIPTkHx4v1eI-60" value="t" style="text;html=1;align=center;verticalAlign=middle;whiteSpace=wrap;rounded=0;" vertex="1" parent="1">
          <mxGeometry x="670" y="1010" width="60" height="35" as="geometry" />
        </mxCell>
        <mxCell id="Ff4ateC0sIPTkHx4v1eI-61" value="f" style="text;html=1;align=center;verticalAlign=middle;whiteSpace=wrap;rounded=0;" vertex="1" parent="1">
          <mxGeometry x="730" y="1010" width="60" height="35" as="geometry" />
        </mxCell>
        <mxCell id="Ff4ateC0sIPTkHx4v1eI-63" value="" style="rounded=0;whiteSpace=wrap;html=1;" vertex="1" parent="1">
          <mxGeometry x="1100" y="930" width="120" height="60" as="geometry" />
        </mxCell>
        <mxCell id="Ff4ateC0sIPTkHx4v1eI-64" value="yes" style="text;html=1;align=center;verticalAlign=middle;whiteSpace=wrap;rounded=0;" vertex="1" parent="1">
          <mxGeometry x="1130" y="945" width="60" height="30" as="geometry" />
        </mxCell>
        <mxCell id="Ff4ateC0sIPTkHx4v1eI-65" value="" style="rounded=0;whiteSpace=wrap;html=1;" vertex="1" parent="1">
          <mxGeometry x="960" y="930" width="120" height="60" as="geometry" />
        </mxCell>
        <mxCell id="Ff4ateC0sIPTkHx4v1eI-66" value="no" style="text;html=1;align=center;verticalAlign=middle;whiteSpace=wrap;rounded=0;" vertex="1" parent="1">
          <mxGeometry x="990" y="945" width="60" height="30" as="geometry" />
        </mxCell>
        <mxCell id="Ff4ateC0sIPTkHx4v1eI-69" value="True" style="text;html=1;align=center;verticalAlign=middle;whiteSpace=wrap;rounded=0;" vertex="1" parent="1">
          <mxGeometry x="1008" y="887" width="60" height="30" as="geometry" />
        </mxCell>
        <mxCell id="Ff4ateC0sIPTkHx4v1eI-70" value="False" style="text;html=1;align=center;verticalAlign=middle;whiteSpace=wrap;rounded=0;" vertex="1" parent="1">
          <mxGeometry x="1048" y="888" width="60" height="30" as="geometry" />
        </mxCell>
        <mxCell id="Ff4ateC0sIPTkHx4v1eI-77" value="Hot" style="text;html=1;align=center;verticalAlign=middle;whiteSpace=wrap;rounded=0;" vertex="1" parent="1">
          <mxGeometry x="320" y="770" width="60" height="30" as="geometry" />
        </mxCell>
        <mxCell id="Ff4ateC0sIPTkHx4v1eI-78" value="Mild" style="text;html=1;align=center;verticalAlign=middle;whiteSpace=wrap;rounded=0;" vertex="1" parent="1">
          <mxGeometry x="550" y="770" width="60" height="30" as="geometry" />
        </mxCell>
        <mxCell id="Ff4ateC0sIPTkHx4v1eI-79" value="Cool" style="text;html=1;align=center;verticalAlign=middle;whiteSpace=wrap;rounded=0;" vertex="1" parent="1">
          <mxGeometry x="430" y="770" width="60" height="30" as="geometry" />
        </mxCell>
        <mxCell id="Ff4ateC0sIPTkHx4v1eI-82" value="" style="rounded=0;whiteSpace=wrap;html=1;" vertex="1" parent="1">
          <mxGeometry x="260" y="820" width="120" height="60" as="geometry" />
        </mxCell>
        <mxCell id="Ff4ateC0sIPTkHx4v1eI-83" value="yes" style="text;html=1;align=center;verticalAlign=middle;whiteSpace=wrap;rounded=0;" vertex="1" parent="1">
          <mxGeometry x="290" y="835" width="60" height="30" as="geometry" />
        </mxCell>
        <mxCell id="Ff4ateC0sIPTkHx4v1eI-85" value="" style="rounded=0;whiteSpace=wrap;html=1;" vertex="1" parent="1">
          <mxGeometry x="400" y="820" width="120" height="60" as="geometry" />
        </mxCell>
        <mxCell id="Ff4ateC0sIPTkHx4v1eI-86" value="yes" style="text;html=1;align=center;verticalAlign=middle;whiteSpace=wrap;rounded=0;" vertex="1" parent="1">
          <mxGeometry x="430" y="835" width="60" height="30" as="geometry" />
        </mxCell>
        <mxCell id="Ff4ateC0sIPTkHx4v1eI-87" value="" style="rounded=0;whiteSpace=wrap;html=1;" vertex="1" parent="1">
          <mxGeometry x="540" y="820" width="120" height="60" as="geometry" />
        </mxCell>
        <mxCell id="Ff4ateC0sIPTkHx4v1eI-88" value="yes" style="text;html=1;align=center;verticalAlign=middle;whiteSpace=wrap;rounded=0;" vertex="1" parent="1">
          <mxGeometry x="570" y="835" width="60" height="30" as="geometry" />
        </mxCell>
      </root>
    </mxGraphModel>
  </diagram>
</mxfile>
